<svg width="36" height="36" viewBox="0 0 36 36" fill="none" xmlns="http://www.w3.org/2000/svg">
<rect x="0.439453" y="-0.00848389" width="35.3011" height="35.3011" rx="17.6506" fill="#1F64FF"/>
<g clip-path="url(#clip0_6_1528)">
<path d="M17.8019 9.51928V25.699" stroke="white" stroke-width="1.47088" stroke-linecap="round" stroke-linejoin="round"/>
<path d="M21.4788 12.4625H15.963C15.2803 12.4625 14.6256 12.7336 14.1428 13.2164C13.6601 13.6991 13.3889 14.3538 13.3889 15.0365C13.3889 15.7192 13.6601 16.3739 14.1428 16.8566C14.6256 17.3393 15.2803 17.6105 15.963 17.6105H19.6402C20.3228 17.6105 20.9776 17.8817 21.4603 18.3645C21.943 18.8472 22.2142 19.5019 22.2142 20.1846C22.2142 20.8672 21.943 21.522 21.4603 22.0047C20.9776 22.4874 20.3228 22.7586 19.6402 22.7586H13.3889" stroke="white" stroke-width="1.47088" stroke-linecap="round" stroke-linejoin="round"/>
</g>
<defs>
<clipPath id="clip0_6_1528">
<rect width="17.6506" height="17.6506" fill="white" transform="translate(8.97729 8.78445)"/>
</clipPath>
</defs>
</svg>
